<svg xmlns="http://www.w3.org/2000/svg" viewBox="0 0 512 512">
  <defs>
    <linearGradient id="bg" x1="72" y1="48" x2="440" y2="464" gradientUnits="userSpaceOnUse">
      <stop stop-color="#5369ee"/>
      <stop offset="1" stop-color="#293aa9"/>
    </linearGradient>
    <filter id="shadow" x="96" y="98" width="332" height="344" filterUnits="userSpaceOnUse">
      <feDropShadow dx="0" dy="18" stdDeviation="18" flood-color="#172039" flood-opacity=".22"/>
    </filter>
  </defs>
  <rect width="512" height="512" rx="112" fill="url(#bg)"/>
  <circle cx="406" cy="110" r="54" fill="#ff806d" opacity=".96"/>
  <g filter="url(#shadow)">
    <path d="M130 142c0-19 15-34 34-34h180c19 0 34 15 34 34v199c0 19-15 34-34 34H231l-62 48 15-48h-20c-19 0-34-15-34-34V142Z" fill="#fff"/>
    <path d="M183 190h139" stroke="#4054d6" stroke-width="22" stroke-linecap="round"/>
    <path d="M183 247h102" stroke="#8594ff" stroke-width="18" stroke-linecap="round"/>
    <path d="M183 300h74" stroke="#c6ccff" stroke-width="18" stroke-linecap="round"/>
    <path d="m292 294 25 25 49-62" fill="none" stroke="#159575" stroke-width="20" stroke-linecap="round" stroke-linejoin="round"/>
  </g>
</svg>
